<!-- public/logo.svg -->
<svg width="256" height="256" viewBox="0 0 256 256" fill="none"
  xmlns="http://www.w3.org/2000/svg" role="img" aria-label="Dotaciones.cl logo">
  <defs>
    <linearGradient id="grad" x1="40" y1="28" x2="220" y2="236" gradientUnits="userSpaceOnUse">
      <stop stop-color="#6D5EFC"/>
      <stop offset="1" stop-color="#22C1C3"/>
    </linearGradient>
    <filter id="shadow" x="-20" y="-20" width="296" height="296" filterUnits="userSpaceOnUse" color-interpolation-filters="sRGB">
      <feDropShadow dx="0" dy="14" stdDeviation="14" flood-color="#020617" flood-opacity="0.22"/>
    </filter>
  </defs>

  <!-- Tile -->
  <rect x="28" y="28" width="200" height="200" rx="56" fill="url(#grad)" filter="url(#shadow)"/>

  <!-- Soft highlight -->
  <path d="M72 64C92 48 122 42 152 47C180 52 200 68 210 88C198 80 183 76 166 77C134 80 108 94 92 114C83 125 77 139 74 154C66 123 56 84 72 64Z"
        fill="rgba(255,255,255,0.16)"/>

  <!-- D -->
  <path d="M92 80H131C156 80 176 100 176 128C176 156 156 176 131 176H92V80Z"
        fill="rgba(255,255,255,0.96)"/>
  <path d="M112 100H131C145 100 156 112 156 128C156 144 145 156 131 156H112V100Z"
        fill="url(#grad)"/>

  <!-- Dot grid (slots/dotación) -->
  <g opacity="0.92">
    <circle cx="188" cy="94" r="6" fill="rgba(255,255,255,0.95)"/>
    <circle cx="208" cy="94" r="6" fill="rgba(255,255,255,0.80)"/>
    <circle cx="188" cy="114" r="6" fill="rgba(255,255,255,0.80)"/>
    <circle cx="208" cy="114" r="6" fill="rgba(255,255,255,0.95)"/>
  </g>
</svg>